<?xml version="1.0" standalone="no"?>
<!DOCTYPE svg PUBLIC "-//W3C//DTD SVG 20010904//EN"
 "http://www.w3.org/TR/2001/REC-SVG-20010904/DTD/svg10.dtd">
<svg version="1.0" xmlns="http://www.w3.org/2000/svg"
 width="1158.000000pt" height="1280.000000pt" viewBox="0 0 1158.000000 1280.000000"
 preserveAspectRatio="xMidYMid meet">
<g transform="translate(0.000000,1280.000000) scale(0.100000,-0.100000)"
fill="#000000" stroke="none">
<path d="M6629 12796 c-2 -2 -56 -11 -121 -20 -355 -49 -653 -197 -909 -451
-531 -527 -620 -1351 -215 -1983 229 -357 591 -604 1026 -698 132 -29 498 -27
633 4 648 145 1128 646 1238 1293 18 107 21 150 16 309 -6 201 -22 296 -77
463 -43 127 -128 294 -208 407 -84 119 -260 296 -375 377 -184 129 -431 232
-642 267 -55 9 -124 21 -154 26 -54 10 -204 14 -212 6z"/>
<path d="M4005 9885 c-258 -28 -475 -75 -679 -144 -749 -256 -1282 -792 -1521
-1531 -50 -155 -91 -336 -110 -489 -20 -153 -24 -171 -50 -185 -129 -72 -216
-143 -281 -230 -174 -231 -201 -510 -74 -771 134 -278 430 -449 750 -432 129
7 226 34 345 95 72 37 108 64 180 137 104 104 146 170 187 293 124 369 -73
780 -443 926 -81 32 -181 56 -239 56 -75 1 -76 2 -56 127 160 983 822 1637
1829 1808 424 72 942 43 1415 -79 51 -13 87 -27 87 -35 0 -7 -25 -21 -55 -32
-315 -110 -651 -424 -910 -851 -338 -558 -554 -1266 -611 -2005 -15 -192 -6
-689 15 -837 80 -557 225 -933 474 -1224 58 -67 186 -171 263 -212 33 -17 59
-37 59 -45 0 -31 -396 -518 -643 -793 -760 -842 -1484 -1350 -2177 -1529 -74
-19 -162 -35 -194 -36 l-59 -2 -35 69 c-63 124 -165 204 -287 227 -286 53
-671 -226 -921 -667 -131 -231 -199 -427 -244 -710 -26 -158 -25 -195 4 -334
37 -180 78 -264 165 -343 51 -46 100 -71 183 -93 63 -17 69 -17 144 1 192 44
360 146 520 317 282 302 468 718 510 1141 7 69 3 66 159 96 588 109 1218 462
1860 1042 153 138 479 466 625 629 138 153 368 430 517 621 l122 155 208 67
c491 158 983 270 1488 341 347 48 1082 123 1109 113 22 -9 21 -132 -5 -727
-26 -594 -28 -1196 -5 -1455 11 -124 13 -192 6 -220 -14 -58 -12 -192 4 -250
113 -426 770 -627 1469 -451 651 164 1104 622 1027 1037 -14 73 -69 183 -125
247 -127 144 -357 249 -625 287 -457 63 -1016 -78 -1366 -346 -41 -32 -71 -48
-81 -45 -15 6 -16 50 -10 449 4 243 14 586 22 762 18 394 19 744 3 933 l-12
142 -26 0 c-15 0 -85 -9 -156 -20 -71 -11 -289 -35 -485 -55 -609 -60 -897
-98 -1244 -165 -190 -37 -245 -45 -245 -36 0 4 26 37 58 74 296 345 551 844
706 1387 206 721 247 1472 117 2112 -12 56 -24 108 -27 116 -16 44 27 16 128
-80 323 -308 638 -535 988 -712 773 -392 1501 -398 2076 -18 263 173 509 450
684 770 48 89 32 83 165 53 135 -30 302 -16 435 37 195 79 357 247 419 433 26
77 51 199 51 244 0 64 -49 234 -92 320 -34 68 -60 103 -133 175 -153 153 -308
217 -525 217 -217 0 -372 -64 -526 -217 -78 -77 -98 -104 -137 -185 -60 -125
-82 -230 -74 -362 9 -152 56 -274 153 -400 24 -31 44 -59 44 -61 0 -15 -166
-284 -221 -357 -84 -114 -245 -278 -348 -356 -174 -130 -400 -226 -615 -259
-134 -21 -392 -16 -536 10 -723 132 -1528 700 -2130 1504 -30 41 -107 150
-170 244 l-115 171 -90 38 c-432 184 -814 291 -1245 348 -202 27 -638 35 -815
15z"/>
</g>
</svg>
